<svg width="180" height="180" xmlns="http://www.w3.org/2000/svg">
 <!-- Created with Method Draw - http://github.com/duopixel/Method-Draw/ -->

 <g>
  <title>background</title>
  <rect fill="#fff" id="canvas_background" height="182" width="182" y="-1" x="-1"/>
  <g display="none" overflow="visible" y="0" x="0" height="100%" width="100%" id="canvasGrid">
   <rect fill="url(#gridpattern)" stroke-width="0" y="0" x="0" height="100%" width="100%"/>
  </g>
 </g>
 <g>
  <title>Layer 1</title>
  <path id="svg_12" d="m123.567484,24.454728c-5.992299,-2.902615 -13.209609,-0.410349 -16.130327,5.594021c-2.908648,6.00437 -0.39828,13.221683 5.594019,16.130333c18.797594,9.148367 31.771855,28.392524 31.759786,50.696195c-0.060345,31.102034 -25.224379,56.266078 -56.320366,56.320389c-31.102021,-0.060345 -56.266055,-25.224389 -56.326401,-56.320389c-0.012069,-22.31574 12.968227,-41.578001 31.783925,-50.708264c6.004368,-2.90865 8.496633,-10.125963 5.594019,-16.130333c-2.908648,-5.992301 -10.11389,-8.502671 -16.118258,-5.594021c-26.865774,13.00444 -45.391813,40.570232 -45.403882,72.432618c0.012069,44.438374 36.020172,80.452526 80.470597,80.464595c44.44439,-0.012069 80.458528,-36.026221 80.464562,-80.464595c-0.012069,-31.850317 -18.51397,-59.398006 -45.367675,-72.420549zm-35.096887,59.343695c6.662133,0 12.063046,-5.394881 12.063046,-12.069086l0,-56.326423c0,-6.66817 -5.400914,-12.063051 -12.063046,-12.063051c-6.674202,0 -12.069081,5.400916 -12.069081,12.063051l0,56.320389c0,6.674204 5.394879,12.07512 12.069081,12.07512z" stroke-width="20" fill="#000"/>
 </g>
</svg>